<?xml version="1.0" encoding="UTF-8" standalone="no"?>
<!DOCTYPE svg PUBLIC "-//W3C//DTD SVG 1.1//EN"
 "http://www.w3.org/Graphics/SVG/1.1/DTD/svg11.dtd">
<!-- Generated by graphviz version 2.36.0 (20140111.2315)
 -->
<!-- Title: %3 Pages: 1 -->
<svg width="808pt" height="404pt"
 viewBox="0.00 0.00 807.92 404.00" xmlns="http://www.w3.org/2000/svg" xmlns:xlink="http://www.w3.org/1999/xlink">
<g id="graph0" class="graph" transform="scale(1 1) rotate(0) translate(4 400)">
<title>%3</title>
<polygon fill="white" stroke="none" points="-4,4 -4,-400 803.921,-400 803.921,4 -4,4"/>
<!-- lib/events -->
<g id="node1" class="node"><title>lib/events</title>
<ellipse fill="orange" stroke="black" cx="438.491" cy="-378" rx="44.271" ry="18"/>
<text text-anchor="middle" x="438.491" y="-374.3" font-family="Times,serif" font-size="14.00">lib/events</text>
</g>
<!-- project/main -->
<g id="node8" class="node"><title>project/main</title>
<ellipse fill="deepskyblue" stroke="black" cx="438.491" cy="-306" rx="55.3436" ry="18"/>
<text text-anchor="middle" x="438.491" y="-302.3" font-family="Times,serif" font-size="14.00">project/main</text>
</g>
<!-- lib/events&#45;&gt;project/main -->
<g id="edge18" class="edge"><title>lib/events&#45;&gt;project/main</title>
<path fill="none" stroke="deepskyblue" d="M432.613,-360.055C431.795,-352.346 431.553,-343.027 431.886,-334.364"/>
<polygon fill="deepskyblue" stroke="deepskyblue" points="435.386,-334.491 432.579,-324.275 428.402,-334.012 435.386,-334.491"/>
</g>
<!-- lib/motor -->
<g id="node2" class="node"><title>lib/motor</title>
<ellipse fill="orange" stroke="black" cx="90.4914" cy="-162" rx="44.2946" ry="18"/>
<text text-anchor="middle" x="90.4914" y="-158.3" font-family="Times,serif" font-size="14.00">lib/motor</text>
</g>
<!-- lib/motor&#45;&gt;lib/events -->
<g id="edge3" class="edge"><title>lib/motor&#45;&gt;lib/events</title>
<path fill="none" stroke="black" d="M57.7699,-174.42C39.1399,-182.805 17.3997,-196.219 6.49142,-216 -1.23499,-230.011 -2.82724,-238.994 6.49142,-252 51.2142,-314.42 282.253,-354.715 386.889,-370.034"/>
<polygon fill="black" stroke="black" points="386.513,-373.516 396.91,-371.481 387.513,-366.587 386.513,-373.516"/>
</g>
<!-- lib/circular&#45;buffer -->
<g id="node4" class="node"><title>lib/circular&#45;buffer</title>
<ellipse fill="orange" stroke="black" cx="191.491" cy="-90" rx="73.1654" ry="18"/>
<text text-anchor="middle" x="191.491" y="-86.3" font-family="Times,serif" font-size="14.00">lib/circular&#45;buffer</text>
</g>
<!-- lib/motor&#45;&gt;lib/circular&#45;buffer -->
<g id="edge1" class="edge"><title>lib/motor&#45;&gt;lib/circular&#45;buffer</title>
<path fill="none" stroke="black" d="M111.911,-146.155C125.787,-136.538 144.105,-123.842 159.669,-113.055"/>
<polygon fill="black" stroke="black" points="161.761,-115.863 167.987,-107.29 157.774,-110.11 161.761,-115.863"/>
</g>
<!-- lib/divmod -->
<g id="node6" class="node"><title>lib/divmod</title>
<ellipse fill="orange" stroke="black" cx="485.491" cy="-18" rx="50.0684" ry="18"/>
<text text-anchor="middle" x="485.491" y="-14.3" font-family="Times,serif" font-size="14.00">lib/divmod</text>
</g>
<!-- lib/motor&#45;&gt;lib/divmod -->
<g id="edge2" class="edge"><title>lib/motor&#45;&gt;lib/divmod</title>
<path fill="none" stroke="black" d="M88.8314,-143.816C87.9118,-123.551 89.8434,-90.3133 109.491,-72 154.114,-30.4091 330.713,-21.2534 425.158,-19.3728"/>
<polygon fill="black" stroke="black" points="425.485,-22.8676 435.422,-19.1906 425.361,-15.8687 425.485,-22.8676"/>
</g>
<!-- lib/lcd -->
<g id="node3" class="node"><title>lib/lcd</title>
<ellipse fill="orange" stroke="black" cx="584.491" cy="-90" rx="33.2209" ry="18"/>
<text text-anchor="middle" x="584.491" y="-86.3" font-family="Times,serif" font-size="14.00">lib/lcd</text>
</g>
<!-- lib/lcd&#45;&gt;lib/events -->
<g id="edge5" class="edge"><title>lib/lcd&#45;&gt;lib/events</title>
<path fill="none" stroke="black" d="M613.898,-98.7081C681.312,-117.933 837.766,-172.261 791.491,-252 731.66,-355.101 576.454,-374.637 493.184,-377.423"/>
<polygon fill="black" stroke="black" points="493.056,-373.925 483.153,-377.689 493.242,-380.922 493.056,-373.925"/>
</g>
<!-- lib/lcd&#45;&gt;lib/divmod -->
<g id="edge4" class="edge"><title>lib/lcd&#45;&gt;lib/divmod</title>
<path fill="none" stroke="black" d="M564.932,-75.1703C550.859,-65.2192 531.613,-51.611 515.589,-40.2813"/>
<polygon fill="black" stroke="black" points="517.258,-37.1747 507.072,-34.2591 513.217,-42.8902 517.258,-37.1747"/>
</g>
<!-- lib/keypad -->
<g id="node5" class="node"><title>lib/keypad</title>
<ellipse fill="orange" stroke="black" cx="231.491" cy="-234" rx="48.1437" ry="18"/>
<text text-anchor="middle" x="231.491" y="-230.3" font-family="Times,serif" font-size="14.00">lib/keypad</text>
</g>
<!-- lib/keypad&#45;&gt;lib/events -->
<g id="edge6" class="edge"><title>lib/keypad&#45;&gt;lib/events</title>
<path fill="none" stroke="black" d="M252.521,-250.41C277.199,-268.392 319.459,-298.867 356.491,-324 372.906,-335.14 391.45,-347.171 406.745,-356.95"/>
<polygon fill="black" stroke="black" points="405.021,-360.002 415.335,-362.424 408.783,-354.099 405.021,-360.002"/>
</g>
<!-- project/magnetron -->
<g id="node7" class="node"><title>project/magnetron</title>
<ellipse fill="deepskyblue" stroke="black" cx="90.4914" cy="-234" rx="75.0904" ry="18"/>
<text text-anchor="middle" x="90.4914" y="-230.3" font-family="Times,serif" font-size="14.00">project/magnetron</text>
</g>
<!-- project/magnetron&#45;&gt;lib/events -->
<g id="edge7" class="edge"><title>project/magnetron&#45;&gt;lib/events</title>
<path fill="none" stroke="black" d="M126.006,-249.993C168.399,-267.838 241.477,-298.437 304.491,-324 335.875,-336.731 371.538,-350.819 398.179,-361.268"/>
<polygon fill="black" stroke="black" points="396.973,-364.554 407.561,-364.943 399.527,-358.037 396.973,-364.554"/>
</g>
<!-- project/magnetron&#45;&gt;lib/motor -->
<g id="edge8" class="edge"><title>project/magnetron&#45;&gt;lib/motor</title>
<path fill="none" stroke="black" d="M90.4914,-215.697C90.4914,-207.983 90.4914,-198.712 90.4914,-190.112"/>
<polygon fill="black" stroke="black" points="93.9915,-190.104 90.4914,-180.104 86.9915,-190.104 93.9915,-190.104"/>
</g>
<!-- project/main&#45;&gt;lib/events -->
<g id="edge9" class="edge"><title>project/main&#45;&gt;lib/events</title>
<path fill="none" stroke="black" d="M444.404,-324.275C445.206,-332.03 445.432,-341.362 445.082,-350.005"/>
<polygon fill="black" stroke="black" points="441.586,-349.832 444.37,-360.055 448.568,-350.327 441.586,-349.832"/>
</g>
<!-- project/main&#45;&gt;lib/keypad -->
<g id="edge10" class="edge"><title>project/main&#45;&gt;lib/keypad</title>
<path fill="none" stroke="black" d="M401.484,-292.485C366.256,-280.573 313.206,-262.633 275.756,-249.969"/>
<polygon fill="black" stroke="black" points="276.707,-246.596 266.113,-246.708 274.465,-253.227 276.707,-246.596"/>
</g>
<!-- project/main&#45;&gt;project/magnetron -->
<g id="edge21" class="edge"><title>project/main&#45;&gt;project/magnetron</title>
<path fill="none" stroke="deepskyblue" d="M392.702,-295.83C340.049,-285.28 251.021,-267.426 174.491,-252 168.461,-250.784 162.188,-249.518 155.907,-248.249"/>
<polygon fill="deepskyblue" stroke="deepskyblue" points="156.561,-244.811 146.065,-246.26 155.174,-251.672 156.561,-244.811"/>
</g>
<!-- project/beeper -->
<g id="node9" class="node"><title>project/beeper</title>
<ellipse fill="deepskyblue" stroke="black" cx="528.491" cy="-234" rx="61.1419" ry="18"/>
<text text-anchor="middle" x="528.491" y="-230.3" font-family="Times,serif" font-size="14.00">project/beeper</text>
</g>
<!-- project/main&#45;&gt;project/beeper -->
<g id="edge19" class="edge"><title>project/main&#45;&gt;project/beeper</title>
<path fill="none" stroke="deepskyblue" d="M458.914,-289.116C471.025,-279.696 486.563,-267.611 499.883,-257.251"/>
<polygon fill="deepskyblue" stroke="deepskyblue" points="502.094,-259.966 507.838,-251.064 497.796,-254.44 502.094,-259.966"/>
</g>
<!-- project/turntable -->
<g id="node10" class="node"><title>project/turntable</title>
<ellipse fill="deepskyblue" stroke="black" cx="714.491" cy="-234" rx="68.3417" ry="18"/>
<text text-anchor="middle" x="714.491" y="-230.3" font-family="Times,serif" font-size="14.00">project/turntable</text>
</g>
<!-- project/main&#45;&gt;project/turntable -->
<g id="edge23" class="edge"><title>project/main&#45;&gt;project/turntable</title>
<path fill="none" stroke="deepskyblue" d="M480.71,-294.292C527.809,-282.347 604.28,-262.952 656.86,-249.617"/>
<polygon fill="deepskyblue" stroke="deepskyblue" points="657.881,-252.969 666.714,-247.118 656.16,-246.183 657.881,-252.969"/>
</g>
<!-- project/timer -->
<g id="node11" class="node"><title>project/timer</title>
<ellipse fill="deepskyblue" stroke="black" cx="354.491" cy="-234" rx="56.3173" ry="18"/>
<text text-anchor="middle" x="354.491" y="-230.3" font-family="Times,serif" font-size="14.00">project/timer</text>
</g>
<!-- project/main&#45;&gt;project/timer -->
<g id="edge22" class="edge"><title>project/main&#45;&gt;project/timer</title>
<path fill="none" stroke="deepskyblue" d="M419.009,-288.765C407.877,-279.488 393.749,-267.714 381.553,-257.551"/>
<polygon fill="deepskyblue" stroke="deepskyblue" points="383.791,-254.86 373.868,-251.147 379.31,-260.238 383.791,-254.86"/>
</g>
<!-- project/display -->
<g id="node12" class="node"><title>project/display</title>
<ellipse fill="deepskyblue" stroke="black" cx="485.491" cy="-162" rx="63.0666" ry="18"/>
<text text-anchor="middle" x="485.491" y="-158.3" font-family="Times,serif" font-size="14.00">project/display</text>
</g>
<!-- project/main&#45;&gt;project/display -->
<g id="edge20" class="edge"><title>project/main&#45;&gt;project/display</title>
<path fill="none" stroke="deepskyblue" d="M441.025,-287.911C444.021,-269.725 449.734,-240.283 458.491,-216 461.749,-206.966 466.203,-197.501 470.555,-189.111"/>
<polygon fill="deepskyblue" stroke="deepskyblue" points="473.706,-190.64 475.354,-180.174 467.539,-187.328 473.706,-190.64"/>
</g>
<!-- project/beeper&#45;&gt;lib/events -->
<g id="edge11" class="edge"><title>project/beeper&#45;&gt;lib/events</title>
<path fill="none" stroke="black" d="M526.503,-252.33C523.667,-271.25 517.085,-301.808 502.491,-324 494.2,-336.609 481.998,-347.764 470.466,-356.546"/>
<polygon fill="black" stroke="black" points="468.289,-353.802 462.253,-362.509 472.401,-359.466 468.289,-353.802"/>
</g>
<!-- project/turntable&#45;&gt;lib/events -->
<g id="edge12" class="edge"><title>project/turntable&#45;&gt;lib/events</title>
<path fill="none" stroke="black" d="M703.088,-252.089C688.739,-272.26 662.221,-305.406 631.491,-324 588.052,-350.284 531.325,-363.83 490.631,-370.616"/>
<polygon fill="black" stroke="black" points="489.976,-367.176 480.648,-372.199 491.073,-374.09 489.976,-367.176"/>
</g>
<!-- project/turntable&#45;&gt;lib/lcd -->
<g id="edge13" class="edge"><title>project/turntable&#45;&gt;lib/lcd</title>
<path fill="none" stroke="black" d="M699.324,-216.433C676.183,-191.155 631.979,-142.871 605.68,-114.144"/>
<polygon fill="black" stroke="black" points="608.103,-111.608 598.769,-106.595 602.94,-116.335 608.103,-111.608"/>
</g>
<!-- project/timer&#45;&gt;lib/events -->
<g id="edge14" class="edge"><title>project/timer&#45;&gt;lib/events</title>
<path fill="none" stroke="black" d="M354.834,-252.31C355.934,-271.213 359.898,-301.755 373.491,-324 381.434,-336.997 393.739,-348.222 405.515,-356.953"/>
<polygon fill="black" stroke="black" points="403.731,-359.977 413.926,-362.859 407.754,-354.248 403.731,-359.977"/>
</g>
<!-- project/timer&#45;&gt;project/display -->
<g id="edge24" class="edge"><title>project/timer&#45;&gt;project/display</title>
<path fill="none" stroke="deepskyblue" d="M382.273,-218.155C401.377,-207.947 426.974,-194.269 447.898,-183.088"/>
<polygon fill="deepskyblue" stroke="deepskyblue" points="449.674,-186.108 456.844,-178.308 446.375,-179.934 449.674,-186.108"/>
</g>
<!-- project/display&#45;&gt;lib/events -->
<g id="edge16" class="edge"><title>project/display&#45;&gt;lib/events</title>
<path fill="none" stroke="black" d="M534.889,-173.21C558.415,-180.821 584.429,-193.871 598.491,-216 607.073,-229.504 604.715,-237.26 598.491,-252 576.212,-304.761 517.765,-340.901 478.032,-360.265"/>
<polygon fill="black" stroke="black" points="476.41,-357.161 468.866,-364.599 479.402,-363.489 476.41,-357.161"/>
</g>
<!-- project/display&#45;&gt;lib/lcd -->
<g id="edge17" class="edge"><title>project/display&#45;&gt;lib/lcd</title>
<path fill="none" stroke="black" d="M507.956,-145.116C522.358,-134.933 541.165,-121.635 556.532,-110.77"/>
<polygon fill="black" stroke="black" points="558.978,-113.327 565.122,-104.695 554.936,-107.611 558.978,-113.327"/>
</g>
<!-- project/display&#45;&gt;lib/divmod -->
<g id="edge15" class="edge"><title>project/display&#45;&gt;lib/divmod</title>
<path fill="none" stroke="black" d="M485.491,-143.871C485.491,-119.67 485.491,-75.2108 485.491,-46.3932"/>
<polygon fill="black" stroke="black" points="488.992,-46.1892 485.491,-36.1893 481.992,-46.1893 488.992,-46.1892"/>
</g>
</g>
</svg>
