<?xml version="1.0" encoding="UTF-8" standalone="no"?>
<!DOCTYPE svg PUBLIC "-//W3C//DTD SVG 1.1//EN"
 "http://www.w3.org/Graphics/SVG/1.1/DTD/svg11.dtd">
<!-- Generated by graphviz version 2.36.0 (20140111.2315)
 -->
<!-- Title: %3 Pages: 1 -->
<svg width="1013pt" height="476pt"
 viewBox="0.00 0.00 1013.11 476.00" xmlns="http://www.w3.org/2000/svg" xmlns:xlink="http://www.w3.org/1999/xlink">
<g id="graph0" class="graph" transform="scale(1 1) rotate(0) translate(4 472)">
<title>%3</title>
<polygon fill="white" stroke="none" points="-4,4 -4,-472 1009.11,-472 1009.11,4 -4,4"/>
<!-- lib/events -->
<g id="node1" class="node"><title>lib/events</title>
<ellipse fill="orange" stroke="black" cx="251.11" cy="-378" rx="44.271" ry="18"/>
<text text-anchor="middle" x="251.11" y="-374.3" font-family="Times,serif" font-size="14.00">lib/events</text>
</g>
<!-- lib/motor -->
<g id="node2" class="node"><title>lib/motor</title>
<ellipse fill="orange" stroke="black" cx="90.1098" cy="-162" rx="44.2946" ry="18"/>
<text text-anchor="middle" x="90.1098" y="-158.3" font-family="Times,serif" font-size="14.00">lib/motor</text>
</g>
<!-- lib/events&#45;&gt;lib/motor -->
<g id="edge1" class="edge"><title>lib/events&#45;&gt;lib/motor</title>
<path fill="none" stroke="red" d="M211.021,-369.871C153.887,-357.319 50.9997,-325.298 6.10975,-252 -2.24655,-238.356 -1.61666,-230.011 6.10975,-216 15.2284,-199.465 31.9163,-187.378 48.0292,-178.959"/>
<polygon fill="red" stroke="red" points="49.9177,-181.933 57.3882,-174.42 46.8632,-175.635 49.9177,-181.933"/>
</g>
<!-- project/magnetron -->
<g id="node5" class="node"><title>project/magnetron</title>
<ellipse fill="deepskyblue" stroke="black" cx="90.1098" cy="-234" rx="75.0904" ry="18"/>
<text text-anchor="middle" x="90.1098" y="-230.3" font-family="Times,serif" font-size="14.00">project/magnetron</text>
</g>
<!-- lib/events&#45;&gt;project/magnetron -->
<g id="edge3" class="edge"><title>lib/events&#45;&gt;project/magnetron</title>
<path fill="none" stroke="red" d="M233.265,-361.261C204.961,-336.298 149.615,-287.483 116.648,-258.406"/>
<polygon fill="red" stroke="red" points="118.594,-255.456 108.779,-251.466 113.963,-260.706 118.594,-255.456"/>
</g>
<!-- project/main -->
<g id="node6" class="node"><title>project/main</title>
<ellipse fill="deepskyblue" stroke="black" cx="641.11" cy="-306" rx="55.3436" ry="18"/>
<text text-anchor="middle" x="641.11" y="-302.3" font-family="Times,serif" font-size="14.00">project/main</text>
</g>
<!-- lib/events&#45;&gt;project/main -->
<g id="edge2" class="edge"><title>lib/events&#45;&gt;project/main</title>
<path fill="none" stroke="red" d="M291.014,-369.838C360.457,-357.374 503.748,-331.655 583.807,-317.285"/>
<polygon fill="red" stroke="red" points="584.497,-320.717 593.721,-315.506 583.26,-313.827 584.497,-320.717"/>
</g>
<!-- project/turntable -->
<g id="node8" class="node"><title>project/turntable</title>
<ellipse fill="deepskyblue" stroke="black" cx="472.11" cy="-234" rx="68.3417" ry="18"/>
<text text-anchor="middle" x="472.11" y="-230.3" font-family="Times,serif" font-size="14.00">project/turntable</text>
</g>
<!-- lib/events&#45;&gt;project/turntable -->
<g id="edge4" class="edge"><title>lib/events&#45;&gt;project/turntable</title>
<path fill="none" stroke="red" d="M273.928,-362.338C313.113,-337.161 393.355,-285.603 438.798,-256.404"/>
<polygon fill="red" stroke="red" points="440.879,-259.227 447.4,-250.877 437.095,-253.338 440.879,-259.227"/>
</g>
<!-- hardware/motor -->
<g id="node15" class="node"><title>hardware/motor</title>
<ellipse fill="lightgrey" stroke="black" cx="90.1098" cy="-90" rx="67.3907" ry="18"/>
<text text-anchor="middle" x="90.1098" y="-86.3" font-family="Times,serif" font-size="14.00">hardware/motor</text>
</g>
<!-- lib/motor&#45;&gt;hardware/motor -->
<g id="edge11" class="edge"><title>lib/motor&#45;&gt;hardware/motor</title>
<path fill="none" stroke="green" d="M90.1098,-143.697C90.1098,-135.983 90.1098,-126.712 90.1098,-118.112"/>
<polygon fill="green" stroke="green" points="93.6099,-118.104 90.1098,-108.104 86.6099,-118.104 93.6099,-118.104"/>
</g>
<!-- lib/lcd -->
<g id="node3" class="node"><title>lib/lcd</title>
<ellipse fill="orange" stroke="black" cx="611.11" cy="-90" rx="33.2209" ry="18"/>
<text text-anchor="middle" x="611.11" y="-86.3" font-family="Times,serif" font-size="14.00">lib/lcd</text>
</g>
<!-- hardware/lcd -->
<g id="node14" class="node"><title>hardware/lcd</title>
<ellipse fill="lightgrey" stroke="black" cx="611.11" cy="-18" rx="56.3173" ry="18"/>
<text text-anchor="middle" x="611.11" y="-14.3" font-family="Times,serif" font-size="14.00">hardware/lcd</text>
</g>
<!-- lib/lcd&#45;&gt;hardware/lcd -->
<g id="edge10" class="edge"><title>lib/lcd&#45;&gt;hardware/lcd</title>
<path fill="none" stroke="green" d="M611.11,-71.6966C611.11,-63.9827 611.11,-54.7125 611.11,-46.1124"/>
<polygon fill="green" stroke="green" points="614.61,-46.1043 611.11,-36.1043 607.61,-46.1044 614.61,-46.1043"/>
</g>
<!-- lib/keypad -->
<g id="node4" class="node"><title>lib/keypad</title>
<ellipse fill="orange" stroke="black" cx="684.11" cy="-378" rx="48.1437" ry="18"/>
<text text-anchor="middle" x="684.11" y="-374.3" font-family="Times,serif" font-size="14.00">lib/keypad</text>
</g>
<!-- lib/keypad&#45;&gt;project/main -->
<g id="edge9" class="edge"><title>lib/keypad&#45;&gt;project/main</title>
<path fill="none" stroke="green" d="M673.701,-360.055C668.63,-351.801 662.426,-341.701 656.797,-332.538"/>
<polygon fill="green" stroke="green" points="659.639,-330.478 651.423,-323.789 653.675,-334.142 659.639,-330.478"/>
</g>
<!-- project/magnetron&#45;&gt;lib/motor -->
<g id="edge20" class="edge"><title>project/magnetron&#45;&gt;lib/motor</title>
<path fill="none" stroke="green" d="M90.1098,-215.697C90.1098,-207.983 90.1098,-198.712 90.1098,-190.112"/>
<polygon fill="green" stroke="green" points="93.6099,-190.104 90.1098,-180.104 86.6099,-190.104 93.6099,-190.104"/>
</g>
<!-- project/main&#45;&gt;project/magnetron -->
<g id="edge14" class="edge"><title>project/main&#45;&gt;project/magnetron</title>
<path fill="none" stroke="green" d="M588.032,-300.486C501.183,-292.763 323.424,-275.537 174.11,-252 167.592,-250.973 160.812,-249.791 154.056,-248.54"/>
<polygon fill="green" stroke="green" points="154.687,-245.097 144.209,-246.666 153.378,-251.974 154.687,-245.097"/>
</g>
<!-- project/beeper -->
<g id="node7" class="node"><title>project/beeper</title>
<ellipse fill="deepskyblue" stroke="black" cx="620.11" cy="-234" rx="61.1419" ry="18"/>
<text text-anchor="middle" x="620.11" y="-230.3" font-family="Times,serif" font-size="14.00">project/beeper</text>
</g>
<!-- project/main&#45;&gt;project/beeper -->
<g id="edge12" class="edge"><title>project/main&#45;&gt;project/beeper</title>
<path fill="none" stroke="green" d="M636.026,-288.055C633.688,-280.261 630.856,-270.822 628.233,-262.079"/>
<polygon fill="green" stroke="green" points="631.518,-260.848 625.292,-252.275 624.813,-262.859 631.518,-260.848"/>
</g>
<!-- project/main&#45;&gt;project/turntable -->
<g id="edge15" class="edge"><title>project/main&#45;&gt;project/turntable</title>
<path fill="none" stroke="green" d="M608.124,-291.337C582.06,-280.542 545.423,-265.367 516.739,-253.486"/>
<polygon fill="green" stroke="green" points="517.921,-250.187 507.343,-249.594 515.243,-256.654 517.921,-250.187"/>
</g>
<!-- project/timer -->
<g id="node9" class="node"><title>project/timer</title>
<ellipse fill="deepskyblue" stroke="black" cx="812.11" cy="-234" rx="56.3173" ry="18"/>
<text text-anchor="middle" x="812.11" y="-230.3" font-family="Times,serif" font-size="14.00">project/timer</text>
</g>
<!-- project/main&#45;&gt;project/timer -->
<g id="edge16" class="edge"><title>project/main&#45;&gt;project/timer</title>
<path fill="none" stroke="green" d="M670.556,-290.666C696.849,-279.296 735.608,-263.395 765.981,-251.497"/>
<polygon fill="green" stroke="green" points="767.47,-254.673 775.521,-247.785 764.932,-248.149 767.47,-254.673"/>
</g>
<!-- project/display -->
<g id="node10" class="node"><title>project/display</title>
<ellipse fill="deepskyblue" stroke="black" cx="762.11" cy="-162" rx="63.0666" ry="18"/>
<text text-anchor="middle" x="762.11" y="-158.3" font-family="Times,serif" font-size="14.00">project/display</text>
</g>
<!-- project/main&#45;&gt;project/display -->
<g id="edge13" class="edge"><title>project/main&#45;&gt;project/display</title>
<path fill="none" stroke="green" d="M664.549,-289.624C678.268,-279.893 695.346,-266.451 708.11,-252 725.022,-232.851 739.722,-207.713 749.496,-189.038"/>
<polygon fill="green" stroke="green" points="752.717,-190.426 754.144,-179.928 746.482,-187.245 752.717,-190.426"/>
</g>
<!-- hardware/leds -->
<g id="node16" class="node"><title>hardware/leds</title>
<ellipse fill="lightgrey" stroke="black" cx="946.11" cy="-234" rx="59.1941" ry="18"/>
<text text-anchor="middle" x="946.11" y="-230.3" font-family="Times,serif" font-size="14.00">hardware/leds</text>
</g>
<!-- project/main&#45;&gt;hardware/leds -->
<g id="edge17" class="edge"><title>project/main&#45;&gt;hardware/leds</title>
<path fill="none" stroke="green" d="M685.977,-295.213C733.5,-284.779 810.688,-267.639 877.11,-252 881.816,-250.892 886.698,-249.725 891.592,-248.543"/>
<polygon fill="green" stroke="green" points="892.712,-251.872 901.602,-246.109 891.058,-245.071 892.712,-251.872"/>
</g>
<!-- project/beeper&#45;&gt;project/beeper -->
<g id="edge5" class="edge"><title>project/beeper&#45;&gt;project/beeper</title>
<path fill="none" stroke="red" d="M661.97,-247.203C681.744,-248.737 699.11,-244.336 699.11,-234 699.11,-225.521 687.424,-221.036 672.31,-220.545"/>
<polygon fill="red" stroke="red" points="671.882,-217.055 661.97,-220.797 672.053,-224.053 671.882,-217.055"/>
</g>
<!-- hardware/speaker -->
<g id="node17" class="node"><title>hardware/speaker</title>
<ellipse fill="lightgrey" stroke="black" cx="608.11" cy="-162" rx="72.192" ry="18"/>
<text text-anchor="middle" x="608.11" y="-158.3" font-family="Times,serif" font-size="14.00">hardware/speaker</text>
</g>
<!-- project/beeper&#45;&gt;hardware/speaker -->
<g id="edge18" class="edge"><title>project/beeper&#45;&gt;hardware/speaker</title>
<path fill="none" stroke="green" d="M617.143,-215.697C615.821,-207.983 614.232,-198.712 612.758,-190.112"/>
<polygon fill="green" stroke="green" points="616.181,-189.369 611.042,-180.104 609.282,-190.552 616.181,-189.369"/>
</g>
<!-- project/turntable&#45;&gt;lib/lcd -->
<g id="edge23" class="edge"><title>project/turntable&#45;&gt;lib/lcd</title>
<path fill="none" stroke="green" d="M479.461,-215.994C488.381,-196.804 504.898,-165.471 526.11,-144 540.959,-128.968 560.86,-116.267 577.672,-107.069"/>
<polygon fill="green" stroke="green" points="579.438,-110.095 586.643,-102.327 576.166,-103.906 579.438,-110.095"/>
</g>
<!-- project/timer&#45;&gt;project/main -->
<g id="edge21" class="edge"><title>project/timer&#45;&gt;project/main</title>
<path fill="none" stroke="green" d="M782.528,-249.393C756.154,-260.794 717.314,-276.727 686.95,-288.616"/>
<polygon fill="green" stroke="green" points="685.468,-285.437 677.417,-292.324 688.005,-291.961 685.468,-285.437"/>
</g>
<!-- project/timer&#45;&gt;project/display -->
<g id="edge22" class="edge"><title>project/timer&#45;&gt;project/display</title>
<path fill="none" stroke="green" d="M800.006,-216.055C793.987,-207.629 786.595,-197.28 779.943,-187.966"/>
<polygon fill="green" stroke="green" points="782.762,-185.892 774.102,-179.789 777.066,-189.961 782.762,-185.892"/>
</g>
<!-- project/display&#45;&gt;lib/lcd -->
<g id="edge19" class="edge"><title>project/display&#45;&gt;lib/lcd</title>
<path fill="none" stroke="green" d="M730.455,-146.326C705.456,-134.737 670.643,-118.598 645.066,-106.741"/>
<polygon fill="green" stroke="green" points="646.3,-103.456 635.755,-102.425 643.356,-109.806 646.3,-103.456"/>
</g>
<!-- hardware/keypad -->
<g id="node11" class="node"><title>hardware/keypad</title>
<ellipse fill="lightgrey" stroke="black" cx="684.11" cy="-450" rx="71.2405" ry="18"/>
<text text-anchor="middle" x="684.11" y="-446.3" font-family="Times,serif" font-size="14.00">hardware/keypad</text>
</g>
<!-- hardware/keypad&#45;&gt;lib/keypad -->
<g id="edge6" class="edge"><title>hardware/keypad&#45;&gt;lib/keypad</title>
<path fill="none" stroke="blue" d="M684.11,-431.697C684.11,-423.983 684.11,-414.712 684.11,-406.112"/>
<polygon fill="blue" stroke="blue" points="687.61,-406.104 684.11,-396.104 680.61,-406.104 687.61,-406.104"/>
</g>
<!-- hardware/optical&#45;detector -->
<g id="node12" class="node"><title>hardware/optical&#45;detector</title>
<ellipse fill="lightgrey" stroke="black" cx="284.11" cy="-234" rx="100.611" ry="18"/>
<text text-anchor="middle" x="284.11" y="-230.3" font-family="Times,serif" font-size="14.00">hardware/optical&#45;detector</text>
</g>
<!-- hardware/optical&#45;detector&#45;&gt;lib/motor -->
<g id="edge7" class="edge"><title>hardware/optical&#45;detector&#45;&gt;lib/motor</title>
<path fill="none" stroke="blue" d="M241.536,-217.638C208.887,-205.858 164.075,-189.688 131.679,-177.999"/>
<polygon fill="blue" stroke="blue" points="132.645,-174.627 122.051,-174.525 130.269,-181.211 132.645,-174.627"/>
</g>
<!-- hardware/buttons -->
<g id="node13" class="node"><title>hardware/buttons</title>
<ellipse fill="lightgrey" stroke="black" cx="546.11" cy="-378" rx="71.2405" ry="18"/>
<text text-anchor="middle" x="546.11" y="-374.3" font-family="Times,serif" font-size="14.00">hardware/buttons</text>
</g>
<!-- hardware/buttons&#45;&gt;project/main -->
<g id="edge8" class="edge"><title>hardware/buttons&#45;&gt;project/main</title>
<path fill="none" stroke="blue" d="M568.143,-360.765C581.035,-351.266 597.479,-339.149 611.492,-328.824"/>
<polygon fill="blue" stroke="blue" points="613.875,-331.416 619.849,-322.666 609.722,-325.78 613.875,-331.416"/>
</g>
</g>
</svg>
