<?xml version="1.0" encoding="UTF-8" standalone="no"?>
<!DOCTYPE svg PUBLIC "-//W3C//DTD SVG 1.1//EN"
 "http://www.w3.org/Graphics/SVG/1.1/DTD/svg11.dtd">
<!-- Generated by graphviz version 2.36.0 (20140111.2315)
 -->
<!-- Title: %3 Pages: 1 -->
<svg width="1054pt" height="476pt"
 viewBox="0.00 0.00 1053.92 476.00" xmlns="http://www.w3.org/2000/svg" xmlns:xlink="http://www.w3.org/1999/xlink">
<g id="graph0" class="graph" transform="scale(1 1) rotate(0) translate(4 472)">
<title>%3</title>
<polygon fill="white" stroke="none" points="-4,4 -4,-472 1049.92,-472 1049.92,4 -4,4"/>
<!-- lib/events -->
<g id="node1" class="node"><title>lib/events</title>
<ellipse fill="orange" stroke="black" cx="472.92" cy="-378" rx="44.271" ry="18"/>
<text text-anchor="middle" x="472.92" y="-374.3" font-family="Times,serif" font-size="14.00">lib/events</text>
</g>
<!-- lib/motor -->
<g id="node2" class="node"><title>lib/motor</title>
<ellipse fill="orange" stroke="black" cx="116.92" cy="-162" rx="44.2946" ry="18"/>
<text text-anchor="middle" x="116.92" y="-158.3" font-family="Times,serif" font-size="14.00">lib/motor</text>
</g>
<!-- lib/events&#45;&gt;lib/motor -->
<g id="edge1" class="edge"><title>lib/events&#45;&gt;lib/motor</title>
<path fill="none" stroke="red" d="M430.644,-372.157C325.912,-359.203 59.1137,-320.039 6.92032,-252 -2.81814,-239.305 -1.59086,-229.548 6.92032,-216 20.4873,-194.404 45.598,-181.4 68.4056,-173.683"/>
<polygon fill="red" stroke="red" points="69.4953,-177.01 77.9988,-170.69 67.4102,-170.327 69.4953,-177.01"/>
</g>
<!-- project/magnetron -->
<g id="node5" class="node"><title>project/magnetron</title>
<ellipse fill="deepskyblue" stroke="black" cx="310.92" cy="-234" rx="75.0904" ry="18"/>
<text text-anchor="middle" x="310.92" y="-230.3" font-family="Times,serif" font-size="14.00">project/magnetron</text>
</g>
<!-- lib/events&#45;&gt;project/magnetron -->
<g id="edge4" class="edge"><title>lib/events&#45;&gt;project/magnetron</title>
<path fill="none" stroke="red" d="M454.965,-361.261C426.485,-336.298 370.795,-287.483 337.623,-258.406"/>
<polygon fill="red" stroke="red" points="339.533,-255.426 329.705,-251.466 334.918,-260.69 339.533,-255.426"/>
</g>
<!-- project/main -->
<g id="node6" class="node"><title>project/main</title>
<ellipse fill="deepskyblue" stroke="black" cx="700.92" cy="-306" rx="55.3436" ry="18"/>
<text text-anchor="middle" x="700.92" y="-302.3" font-family="Times,serif" font-size="14.00">project/main</text>
</g>
<!-- lib/events&#45;&gt;project/main -->
<g id="edge2" class="edge"><title>lib/events&#45;&gt;project/main</title>
<path fill="none" stroke="red" d="M507.549,-366.369C546.15,-354.517 608.854,-335.266 652.349,-321.912"/>
<polygon fill="red" stroke="red" points="653.61,-325.186 662.142,-318.906 651.555,-318.495 653.61,-325.186"/>
</g>
<!-- project/turntable -->
<g id="node8" class="node"><title>project/turntable</title>
<ellipse fill="deepskyblue" stroke="black" cx="472.92" cy="-234" rx="68.3417" ry="18"/>
<text text-anchor="middle" x="472.92" y="-230.3" font-family="Times,serif" font-size="14.00">project/turntable</text>
</g>
<!-- lib/events&#45;&gt;project/turntable -->
<g id="edge5" class="edge"><title>lib/events&#45;&gt;project/turntable</title>
<path fill="none" stroke="red" d="M472.92,-359.871C472.92,-335.67 472.92,-291.211 472.92,-262.393"/>
<polygon fill="red" stroke="red" points="476.42,-262.189 472.92,-252.189 469.42,-262.189 476.42,-262.189"/>
</g>
<!-- project/display -->
<g id="node10" class="node"><title>project/display</title>
<ellipse fill="deepskyblue" stroke="black" cx="680.92" cy="-162" rx="63.0666" ry="18"/>
<text text-anchor="middle" x="680.92" y="-158.3" font-family="Times,serif" font-size="14.00">project/display</text>
</g>
<!-- lib/events&#45;&gt;project/display -->
<g id="edge3" class="edge"><title>lib/events&#45;&gt;project/display</title>
<path fill="none" stroke="red" d="M481.841,-360.156C499.126,-328.73 539.832,-260.334 588.92,-216 603.694,-202.657 622.377,-191.139 639.041,-182.281"/>
<polygon fill="red" stroke="red" points="640.766,-185.33 648.053,-177.639 637.56,-179.107 640.766,-185.33"/>
</g>
<!-- hardware/motor -->
<g id="node15" class="node"><title>hardware/motor</title>
<ellipse fill="lightgrey" stroke="black" cx="116.92" cy="-90" rx="67.3907" ry="18"/>
<text text-anchor="middle" x="116.92" y="-86.3" font-family="Times,serif" font-size="14.00">hardware/motor</text>
</g>
<!-- lib/motor&#45;&gt;hardware/motor -->
<g id="edge12" class="edge"><title>lib/motor&#45;&gt;hardware/motor</title>
<path fill="none" stroke="green" d="M116.92,-143.697C116.92,-135.983 116.92,-126.712 116.92,-118.112"/>
<polygon fill="green" stroke="green" points="120.42,-118.104 116.92,-108.104 113.42,-118.104 120.42,-118.104"/>
</g>
<!-- lib/lcd -->
<g id="node3" class="node"><title>lib/lcd</title>
<ellipse fill="orange" stroke="black" cx="521.92" cy="-90" rx="33.2209" ry="18"/>
<text text-anchor="middle" x="521.92" y="-86.3" font-family="Times,serif" font-size="14.00">lib/lcd</text>
</g>
<!-- hardware/lcd -->
<g id="node14" class="node"><title>hardware/lcd</title>
<ellipse fill="lightgrey" stroke="black" cx="521.92" cy="-18" rx="56.3173" ry="18"/>
<text text-anchor="middle" x="521.92" y="-14.3" font-family="Times,serif" font-size="14.00">hardware/lcd</text>
</g>
<!-- lib/lcd&#45;&gt;hardware/lcd -->
<g id="edge11" class="edge"><title>lib/lcd&#45;&gt;hardware/lcd</title>
<path fill="none" stroke="green" d="M521.92,-71.6966C521.92,-63.9827 521.92,-54.7125 521.92,-46.1124"/>
<polygon fill="green" stroke="green" points="525.42,-46.1043 521.92,-36.1043 518.42,-46.1044 525.42,-46.1043"/>
</g>
<!-- lib/keypad -->
<g id="node4" class="node"><title>lib/keypad</title>
<ellipse fill="orange" stroke="black" cx="791.92" cy="-378" rx="48.1437" ry="18"/>
<text text-anchor="middle" x="791.92" y="-374.3" font-family="Times,serif" font-size="14.00">lib/keypad</text>
</g>
<!-- lib/keypad&#45;&gt;project/main -->
<g id="edge10" class="edge"><title>lib/keypad&#45;&gt;project/main</title>
<path fill="none" stroke="green" d="M771.724,-361.465C759.323,-351.925 743.244,-339.557 729.543,-329.018"/>
<polygon fill="green" stroke="green" points="731.435,-326.057 721.374,-322.734 727.167,-331.605 731.435,-326.057"/>
</g>
<!-- project/magnetron&#45;&gt;lib/motor -->
<g id="edge22" class="edge"><title>project/magnetron&#45;&gt;lib/motor</title>
<path fill="none" stroke="green" d="M271.193,-218.666C238.302,-206.797 191.722,-189.99 158.365,-177.954"/>
<polygon fill="green" stroke="green" points="159.494,-174.641 148.899,-174.539 157.118,-181.225 159.494,-174.641"/>
</g>
<!-- project/main&#45;&gt;project/magnetron -->
<g id="edge15" class="edge"><title>project/main&#45;&gt;project/magnetron</title>
<path fill="none" stroke="green" d="M652.616,-297.066C592.245,-287.05 485.798,-269.063 394.92,-252 388.778,-250.847 382.391,-249.614 376.004,-248.36"/>
<polygon fill="green" stroke="green" points="376.492,-244.889 366.002,-246.378 375.131,-251.755 376.492,-244.889"/>
</g>
<!-- project/beeper -->
<g id="node7" class="node"><title>project/beeper</title>
<ellipse fill="deepskyblue" stroke="black" cx="966.92" cy="-234" rx="61.1419" ry="18"/>
<text text-anchor="middle" x="966.92" y="-230.3" font-family="Times,serif" font-size="14.00">project/beeper</text>
</g>
<!-- project/main&#45;&gt;project/beeper -->
<g id="edge13" class="edge"><title>project/main&#45;&gt;project/beeper</title>
<path fill="none" stroke="green" d="M742.483,-294.062C788.51,-281.95 862.855,-262.386 913.251,-249.123"/>
<polygon fill="green" stroke="green" points="914.216,-252.489 922.996,-246.559 912.434,-245.719 914.216,-252.489"/>
</g>
<!-- project/main&#45;&gt;project/turntable -->
<g id="edge16" class="edge"><title>project/main&#45;&gt;project/turntable</title>
<path fill="none" stroke="green" d="M661.985,-293.046C624.306,-281.478 566.932,-263.863 525.27,-251.072"/>
<polygon fill="green" stroke="green" points="526.158,-247.684 515.571,-248.095 524.104,-254.376 526.158,-247.684"/>
</g>
<!-- project/timer -->
<g id="node9" class="node"><title>project/timer</title>
<ellipse fill="deepskyblue" stroke="black" cx="830.92" cy="-234" rx="56.3173" ry="18"/>
<text text-anchor="middle" x="830.92" y="-230.3" font-family="Times,serif" font-size="14.00">project/timer</text>
</g>
<!-- project/main&#45;&gt;project/timer -->
<g id="edge17" class="edge"><title>project/main&#45;&gt;project/timer</title>
<path fill="none" stroke="green" d="M724.051,-289.465C742.434,-278.892 768.413,-264.844 790.211,-253.663"/>
<polygon fill="green" stroke="green" points="791.932,-256.715 799.263,-249.066 788.762,-250.474 791.932,-256.715"/>
</g>
<!-- project/main&#45;&gt;project/display -->
<g id="edge14" class="edge"><title>project/main&#45;&gt;project/display</title>
<path fill="none" stroke="green" d="M711.992,-288.02C722.338,-269.924 734.939,-240.557 725.92,-216 722.01,-205.353 714.907,-195.381 707.482,-187.023"/>
<polygon fill="green" stroke="green" points="709.787,-184.368 700.359,-179.535 704.716,-189.193 709.787,-184.368"/>
</g>
<!-- hardware/leds -->
<g id="node16" class="node"><title>hardware/leds</title>
<ellipse fill="lightgrey" stroke="black" cx="657.92" cy="-234" rx="59.1941" ry="18"/>
<text text-anchor="middle" x="657.92" y="-230.3" font-family="Times,serif" font-size="14.00">hardware/leds</text>
</g>
<!-- project/main&#45;&gt;hardware/leds -->
<g id="edge18" class="edge"><title>project/main&#45;&gt;hardware/leds</title>
<path fill="none" stroke="green" d="M690.511,-288.055C685.441,-279.801 679.237,-269.701 673.608,-260.538"/>
<polygon fill="green" stroke="green" points="676.45,-258.478 668.234,-251.789 670.486,-262.142 676.45,-258.478"/>
</g>
<!-- project/beeper&#45;&gt;project/beeper -->
<g id="edge6" class="edge"><title>project/beeper&#45;&gt;project/beeper</title>
<path fill="none" stroke="red" d="M1008.78,-247.203C1028.55,-248.737 1045.92,-244.336 1045.92,-234 1045.92,-225.521 1034.23,-221.036 1019.12,-220.545"/>
<polygon fill="red" stroke="red" points="1018.69,-217.055 1008.78,-220.797 1018.86,-224.053 1018.69,-217.055"/>
</g>
<!-- hardware/speaker -->
<g id="node17" class="node"><title>hardware/speaker</title>
<ellipse fill="lightgrey" stroke="black" cx="966.92" cy="-162" rx="72.192" ry="18"/>
<text text-anchor="middle" x="966.92" y="-158.3" font-family="Times,serif" font-size="14.00">hardware/speaker</text>
</g>
<!-- project/beeper&#45;&gt;hardware/speaker -->
<g id="edge19" class="edge"><title>project/beeper&#45;&gt;hardware/speaker</title>
<path fill="none" stroke="green" d="M966.92,-215.697C966.92,-207.983 966.92,-198.712 966.92,-190.112"/>
<polygon fill="green" stroke="green" points="970.42,-190.104 966.92,-180.104 963.42,-190.104 970.42,-190.104"/>
</g>
<!-- project/turntable&#45;&gt;lib/lcd -->
<g id="edge25" class="edge"><title>project/turntable&#45;&gt;lib/lcd</title>
<path fill="none" stroke="green" d="M478.831,-215.871C487.264,-191.432 502.826,-146.334 512.76,-117.548"/>
<polygon fill="green" stroke="green" points="516.188,-118.343 516.141,-107.748 509.57,-116.06 516.188,-118.343"/>
</g>
<!-- project/timer&#45;&gt;project/main -->
<g id="edge23" class="edge"><title>project/timer&#45;&gt;project/main</title>
<path fill="none" stroke="green" d="M807.536,-250.681C789.122,-261.264 763.196,-275.278 741.464,-286.421"/>
<polygon fill="green" stroke="green" points="739.773,-283.355 732.442,-291.003 742.943,-289.596 739.773,-283.355"/>
</g>
<!-- project/timer&#45;&gt;project/display -->
<g id="edge24" class="edge"><title>project/timer&#45;&gt;project/display</title>
<path fill="none" stroke="green" d="M800.566,-218.834C777.793,-208.207 746.386,-193.551 721.465,-181.921"/>
<polygon fill="green" stroke="green" points="722.804,-178.684 712.262,-177.626 719.844,-185.027 722.804,-178.684"/>
</g>
<!-- project/display&#45;&gt;lib/lcd -->
<g id="edge20" class="edge"><title>project/display&#45;&gt;lib/lcd</title>
<path fill="none" stroke="green" d="M647.975,-146.496C621.241,-134.726 583.663,-118.182 556.499,-106.223"/>
<polygon fill="green" stroke="green" points="557.565,-102.868 547.002,-102.042 554.744,-109.275 557.565,-102.868"/>
</g>
<!-- hardware/lcd&#45;backlight -->
<g id="node18" class="node"><title>hardware/lcd&#45;backlight</title>
<ellipse fill="lightgrey" stroke="black" cx="680.92" cy="-90" rx="91.9385" ry="18"/>
<text text-anchor="middle" x="680.92" y="-86.3" font-family="Times,serif" font-size="14.00">hardware/lcd&#45;backlight</text>
</g>
<!-- project/display&#45;&gt;hardware/lcd&#45;backlight -->
<g id="edge21" class="edge"><title>project/display&#45;&gt;hardware/lcd&#45;backlight</title>
<path fill="none" stroke="green" d="M680.92,-143.697C680.92,-135.983 680.92,-126.712 680.92,-118.112"/>
<polygon fill="green" stroke="green" points="684.42,-118.104 680.92,-108.104 677.42,-118.104 684.42,-118.104"/>
</g>
<!-- hardware/keypad -->
<g id="node11" class="node"><title>hardware/keypad</title>
<ellipse fill="lightgrey" stroke="black" cx="791.92" cy="-450" rx="71.2405" ry="18"/>
<text text-anchor="middle" x="791.92" y="-446.3" font-family="Times,serif" font-size="14.00">hardware/keypad</text>
</g>
<!-- hardware/keypad&#45;&gt;lib/keypad -->
<g id="edge7" class="edge"><title>hardware/keypad&#45;&gt;lib/keypad</title>
<path fill="none" stroke="blue" d="M791.92,-431.697C791.92,-423.983 791.92,-414.712 791.92,-406.112"/>
<polygon fill="blue" stroke="blue" points="795.42,-406.104 791.92,-396.104 788.42,-406.104 795.42,-406.104"/>
</g>
<!-- hardware/optical&#45;detector -->
<g id="node12" class="node"><title>hardware/optical&#45;detector</title>
<ellipse fill="lightgrey" stroke="black" cx="116.92" cy="-234" rx="100.611" ry="18"/>
<text text-anchor="middle" x="116.92" y="-230.3" font-family="Times,serif" font-size="14.00">hardware/optical&#45;detector</text>
</g>
<!-- hardware/optical&#45;detector&#45;&gt;lib/motor -->
<g id="edge8" class="edge"><title>hardware/optical&#45;detector&#45;&gt;lib/motor</title>
<path fill="none" stroke="blue" d="M116.92,-215.697C116.92,-207.983 116.92,-198.712 116.92,-190.112"/>
<polygon fill="blue" stroke="blue" points="120.42,-190.104 116.92,-180.104 113.42,-190.104 120.42,-190.104"/>
</g>
<!-- hardware/buttons -->
<g id="node13" class="node"><title>hardware/buttons</title>
<ellipse fill="lightgrey" stroke="black" cx="653.92" cy="-378" rx="71.2405" ry="18"/>
<text text-anchor="middle" x="653.92" y="-374.3" font-family="Times,serif" font-size="14.00">hardware/buttons</text>
</g>
<!-- hardware/buttons&#45;&gt;project/main -->
<g id="edge9" class="edge"><title>hardware/buttons&#45;&gt;project/main</title>
<path fill="none" stroke="blue" d="M665.298,-360.055C670.898,-351.715 677.762,-341.491 683.966,-332.252"/>
<polygon fill="blue" stroke="blue" points="686.979,-334.042 689.648,-323.789 681.168,-330.14 686.979,-334.042"/>
</g>
</g>
</svg>
